<?xml version="1.0" encoding="utf-8"?>
<!-- Generator: Adobe Illustrator 25.0.0, SVG Export Plug-In . SVG Version: 6.00 Build 0)  -->
<svg version="1.1" id="圖層_1" xmlns="http://www.w3.org/2000/svg" xmlns:xlink="http://www.w3.org/1999/xlink" x="0px" y="0px"
	 viewBox="0 0 30 30" style="enable-background:new 0 0 30 30;" xml:space="preserve">
<style type="text/css">
	.st0{display:none;}
	.st1{display:inline;opacity:0.6;}
	.st2{fill:#F29D86;}
	.st3{display:inline;opacity:0.6;fill:#5DBAC7;enable-background:new    ;}
	.st4{fill:none;stroke:#040000;stroke-width:2;}
</style>
<g id="圖層_4" class="st0">
	<g class="st1">
		<path class="st2" d="M15,2.8c6.8,0,12.3,5.5,12.3,12.3S21.8,27.3,15,27.3S2.8,21.8,2.8,15S8.2,2.8,15,2.8 M15,2.5
			C8.1,2.5,2.5,8.1,2.5,15S8.1,27.5,15,27.5S27.5,21.9,27.5,15S21.9,2.5,15,2.5L15,2.5z"/>
	</g>
</g>
<g id="圖層_3" class="st0">
	<path class="st3" d="M27.5,2.5v25h-25v-25H27.5 M30,0H0v30h30V0L30,0z"/>
</g>
<path id="Stroke-1_8_" class="st4" d="M7.3,24.2c0,1.7-1.3,3-3,3s-3-1.3-3-3s1.3-3,3-3S7.3,22.4,7.3,24.2z"/>
<path id="Stroke-1_7_" class="st4" d="M17.9,24.2c0,1.7-1.3,3-3,3s-3-1.3-3-3s1.3-3,3-3S17.9,22.4,17.9,24.2z"/>
<path id="Stroke-1_6_" class="st4" d="M25.7,21.1c1.7,0,3,1.3,3,3s-1.3,3-3,3c-1.7,0-3-1.3-3-3C22.6,22.4,24,21.1,25.7,21.1z"/>
<path id="Stroke-1_1_" class="st4" d="M20.6,10.9c-0.9,3.2-4.3,5-7.5,4s-5-4.3-4-7.5c0.9-3.2,4.3-5,7.5-4S21.5,7.7,20.6,10.9z"/>
<line class="st4" x1="4.9" y1="21.8" x2="11.2" y2="13.9"/>
<line class="st4" x1="24.5" y1="21.5" x2="18.6" y2="13.9"/>
<line class="st4" x1="14.9" y1="15.1" x2="14.9" y2="21.4"/>
</svg>
