<?xml version="1.0" encoding="utf-8"?>
<!-- Generator: Adobe Illustrator 23.1.1, SVG Export Plug-In . SVG Version: 6.00 Build 0)  -->
<svg version="1.1" xmlns="http://www.w3.org/2000/svg" xmlns:xlink="http://www.w3.org/1999/xlink" x="0px" y="0px"
	 viewBox="0 0 30 30" style="enable-background:new 0 0 30 30;" xml:space="preserve">
<style type="text/css">
	.st0{display:none;}
	.st1{display:inline;}
	.st2{fill:#EF3123;}
	.st3{fill:#202020;}
</style>
<g id="Layer_1_copy_2" class="st0">
	<title>Icon / Svg / 48 / Line / Call 017@1x</title>
	<desc>Created with Sketch.</desc>
	<g class="st1">
		<path class="st2" d="M23.4,4.3V2.5H2.7v21.7h1.8v3.3h23V4.3H23.4z M6.4,25.5v-1.4h17v-18h2.1v19.3H6.4z M21.5,4.4v17.8H4.6V4.4
			H21.5z"/>
		<g>
			<polygon class="st2" points="15.4,14.7 13.9,14.7 7.3,14.7 7.3,16.6 13.9,16.6 15.4,16.6 18.9,16.6 18.9,14.7 			"/>
			<polygon class="st2" points="13.9,18.2 7.3,18.2 7.3,20.1 13.9,20.1 15.4,20.1 18.9,20.1 18.9,18.2 15.4,18.2 			"/>
		</g>
		<path class="st2" d="M18.9,6H7.3v6.7h11.6V6z M9.2,10.8V8H17v2.8H9.2z"/>
	</g>
</g>
<g id="Layer_1_copy_3">
	<title>Icon / Svg / 48 / Line / Call 017@1x</title>
	<desc>Created with Sketch.</desc>
	<g>
		<path class="st3" d="M23.4,4.3V2.5H2.7v21.7h1.8v3.3h23V4.3H23.4z M6.4,25.5v-1.4h17v-18h2.1v19.3H6.4z M21.5,4.4v17.8H4.6V4.4
			H21.5z"/>
		<g>
			<polygon class="st3" points="15.4,14.7 13.9,14.7 7.3,14.7 7.3,16.6 13.9,16.6 15.4,16.6 18.9,16.6 18.9,14.7 			"/>
			<polygon class="st3" points="13.9,18.2 7.3,18.2 7.3,20.1 13.9,20.1 15.4,20.1 18.9,20.1 18.9,18.2 15.4,18.2 			"/>
		</g>
		<path class="st3" d="M18.9,6H7.3v6.7h11.6V6z M9.2,10.8V8H17v2.8H9.2z"/>
	</g>
</g>
</svg>
