<svg xmlns="http://www.w3.org/2000/svg" width="42" height="42" viewBox="0 0 42 42">
    <g fill="none" fill-rule="evenodd">
        <g>
            <g>
                <g>
                    <g>
                        <path d="M0 0H42V42H0z" transform="translate(-29 -501) translate(0 426) translate(0 64) translate(29 11)"/>
                        <g transform="translate(-29 -501) translate(0 426) translate(0 64) translate(29 11) translate(1 1)">
                            <circle cx="20" cy="20" r="20" stroke="#BFBFBF" stroke-width="2"/>
                            <g>
                                <path stroke="#000" stroke-width="2" d="M14 4c0 2.209-1.792 4-4 4-2.21 0-4-1.791-4-4s1.79-4 4-4c2.208 0 4 1.791 4 4z" transform="translate(10 8)"/>
                                <path stroke="#000" stroke-linejoin="round" stroke-width="2" d="M10.318 20.453L0 20.453 3.2 11 17 11 20 20.453 15.97 20.453z" transform="translate(10 8)"/>
                                <path stroke="#141414" stroke-linejoin="round" stroke-width="2.105" d="M6 11L10 16.796 14 11" transform="translate(10 8)"/>
                            </g>
                        </g>
                    </g>
                </g>
            </g>
        </g>
    </g>
</svg>
