<?xml version="1.0" encoding="utf-8"?>
<!-- Generator: Adobe Illustrator 23.1.1, SVG Export Plug-In . SVG Version: 6.00 Build 0)  -->
<svg version="1.1" id="Layer_1_copy_4" xmlns="http://www.w3.org/2000/svg" xmlns:xlink="http://www.w3.org/1999/xlink" x="0px"
	 y="0px" viewBox="0 0 30 30" style="enable-background:new 0 0 30 30;" xml:space="preserve">
<style type="text/css">
	.st0{fill:#FFFFFF;}
	.st1{fill:#EF3123;}
</style>
<title>Icon / Svg / 48 / Line / Call 017@1x</title>
<desc>Created with Sketch.</desc>
<polygon class="st0" points="29.3,26.9 13.3,26.9 13.3,8.7 28.3,8.7 "/>
<polygon class="st1" points="14.4,25.6 11.9,25.6 3.8,14.4 7.1,5.6 10.2,5.6 14.9,10.1 19.9,5.6 23,5.6 25,10.1 27.2,10 24.3,3.6 
	19.1,3.6 15,7.4 11.1,3.6 5.7,3.6 1.6,14.8 10.9,27.6 14.4,27.6 "/>
<path class="st1" d="M16.6,11.8v3.9h-3.9v7.9h3.9v3.9h7.9v-3.9h3.9v-7.9h-3.9v-3.9H16.6z M26.5,17.7v4h-3.9v3.9h-4v-3.9h-3.9v-4h3.9
	v-3.9h4v3.9H26.5z"/>
</svg>
