<?xml version="1.0" encoding="utf-8"?>
<!-- Generator: Adobe Illustrator 23.1.1, SVG Export Plug-In . SVG Version: 6.00 Build 0)  -->
<svg version="1.1" id="Layer_1" xmlns="http://www.w3.org/2000/svg" xmlns:xlink="http://www.w3.org/1999/xlink" x="0px" y="0px"
	 viewBox="0 0 30 30" style="enable-background:new 0 0 30 30;" xml:space="preserve">
<style type="text/css">
	.st0{fill:#EF3123;}
	.st1{fill:none;stroke:#EF3123;stroke-width:2;}
</style>
<g id="Layer_1_copy_2">
	<title>Icon / Svg / 48 / Line / Call 017@1x</title>
	<desc>Created with Sketch.</desc>
	<path class="st0" d="M19.4,1.8c-3.5,0-6.3,2-7.6,4.5c-1.5-2.6-4.1-4.5-7.6-4.5H1.2v2.9c0,4.8,3.9,8.7,8.7,8.7h0.7v6.7h2.2v-6.7h0.7
		c4.8,0,8.7-3.8,8.7-8.7V1.8H19.4z M10.6,11.2H10c-3.6,0-6.5-2.9-6.5-6.5V4h0.7c3.6,0,6.5,2.9,6.5,6.5V11.2z M20,4.7
		c0,3.7-2.9,6.5-6.5,6.5h-0.7v-0.7c0-3.7,2.9-6.5,6.5-6.5H20V4.7L20,4.7z"/>
	<g>
		<g id="Group-37_2_" transform="translate(5.000000, 31.000000)">
			<polyline id="Path-43_2_" class="st1" points="23.8,-10.8 19.1,-15.6 11.7,-15.6 11.7,-11.7 15.9,-11.7 15.9,-7.4 6.2,-7.4 
				-0.3,-12.2 -2.6,-9.1 4.8,-2.9 15.9,-2.9 			"/>
		</g>
	</g>
</g>
</svg>
