<?xml version="1.0" encoding="utf-8"?>
<!-- Generator: Adobe Illustrator 23.1.1, SVG Export Plug-In . SVG Version: 6.00 Build 0)  -->
<svg version="1.1" xmlns="http://www.w3.org/2000/svg" xmlns:xlink="http://www.w3.org/1999/xlink" x="0px" y="0px"
	 viewBox="0 0 30 30" style="enable-background:new 0 0 30 30;" xml:space="preserve">
<style type="text/css">
	.st0{fill:#EF3123;}
	.st1{fill:#FFFFFF;}
	.st2{display:none;}
	.st3{display:inline;}
	.st4{fill:#202020;}
	.st5{display:inline;fill:#FFFFFF;}
	.st6{display:inline;fill:#202020;}
</style>
<g id="Layer_1_copy">
	<title>Icon / Svg / 48 / Line / Call 017@1x</title>
	<desc>Created with Sketch.</desc>
	<g>
		<path class="st0" d="M19.8,2.5L19.8,2.5l-17.3,0v25h21.9V7.6L19.8,2.5z M19.9,8V5.6L22.1,8H19.9z M4.5,4.5h13.4V10h4.5v15.5H4.5
			V4.5z"/>
		<rect x="5.9" y="15.2" class="st0" width="7.9" height="2"/>
		<rect x="5.9" y="19.6" class="st0" width="7.9" height="2"/>
		<polygon class="st0" points="15.1,7.7 13.6,6.3 9.6,10.4 7.6,8.4 6.2,9.9 9.6,13.2 		"/>
	</g>
	<ellipse class="st1" cx="21.6" cy="18" rx="4.7" ry="4.3"/>
	<path class="st0" d="M27.5,18.8v-1.8l-0.9-0.2c0-0.2-0.1-0.4-0.2-0.6l0.7-0.6l-0.1-0.1c-0.2-0.5-0.4-0.9-0.7-1.3l-0.1-0.1l-0.9,0.3
		c-0.1-0.1-0.3-0.3-0.4-0.4l0.3-0.9l-0.1-0.1c-0.4-0.3-0.8-0.6-1.3-0.7l-0.1-0.1L23.1,13c-0.2-0.1-0.4-0.1-0.6-0.2l-0.2-0.9h-1.8
		l-0.2,0.9c-0.2,0-0.4,0.1-0.6,0.2l-0.6-0.7l-0.1,0.1c-0.5,0.2-0.9,0.4-1.3,0.7l-0.1,0.1l0.3,0.9c-0.1,0.1-0.3,0.3-0.4,0.4l-0.9-0.3
		l-0.1,0.1c-0.3,0.4-0.6,0.8-0.7,1.3l-0.1,0.1l0.7,0.6c-0.1,0.2-0.1,0.4-0.2,0.6l-0.9,0.2v1.8l0.9,0.2c0,0.2,0.1,0.4,0.2,0.6
		l-0.7,0.6l0.1,0.1c0.2,0.5,0.4,0.9,0.7,1.3l0.1,0.1l0.9-0.3c0.1,0.1,0.3,0.3,0.4,0.4l-0.3,0.9l0.1,0.1c0.4,0.3,0.8,0.6,1.3,0.7
		l0.1,0.1l0.6-0.7c0.2,0.1,0.4,0.1,0.6,0.2l0.2,0.9h1.8l0.2-0.9c0.2,0,0.4-0.1,0.6-0.2l0.6,0.7l0.1-0.1c0.5-0.2,0.9-0.4,1.3-0.7
		l0.1-0.1l-0.3-0.9c0.1-0.1,0.3-0.3,0.4-0.4l0.9,0.3l0.1-0.1c0.3-0.4,0.6-0.8,0.7-1.3l0.1-0.1l-0.7-0.6c0.1-0.2,0.1-0.4,0.2-0.6
		L27.5,18.8z M25.3,18c0,2.1-1.7,3.9-3.9,3.9s-3.9-1.7-3.9-3.9c0-2.1,1.7-3.9,3.9-3.9S25.3,15.8,25.3,18z"/>
</g>
<g id="Layer_1_copy_2" class="st2">
	<title>Icon / Svg / 48 / Line / Call 017@1x</title>
	<desc>Created with Sketch.</desc>
	<g class="st3">
		<path class="st4" d="M19.8,2.5L19.8,2.5l-17.3,0v25h21.9V7.6L19.8,2.5z M19.9,8V5.6L22.1,8H19.9z M4.5,4.5h13.4V10h4.5v15.5H4.5
			V4.5z"/>
		<rect x="5.9" y="15.2" class="st4" width="7.9" height="2"/>
		<rect x="5.9" y="19.6" class="st4" width="7.9" height="2"/>
		<polygon class="st4" points="15.1,7.7 13.6,6.3 9.6,10.4 7.6,8.4 6.2,9.9 9.6,13.2 		"/>
	</g>
	<ellipse class="st5" cx="21.6" cy="18" rx="4.7" ry="4.3"/>
	<path class="st6" d="M27.5,18.8v-1.8l-0.9-0.2c0-0.2-0.1-0.4-0.2-0.6l0.7-0.6l-0.1-0.1c-0.2-0.5-0.4-0.9-0.7-1.3l-0.1-0.1l-0.9,0.3
		c-0.1-0.1-0.3-0.3-0.4-0.4l0.3-0.9l-0.1-0.1c-0.4-0.3-0.8-0.6-1.3-0.7l-0.1-0.1L23.1,13c-0.2-0.1-0.4-0.1-0.6-0.2l-0.2-0.9h-1.8
		l-0.2,0.9c-0.2,0-0.4,0.1-0.6,0.2l-0.6-0.7l-0.1,0.1c-0.5,0.2-0.9,0.4-1.3,0.7l-0.1,0.1l0.3,0.9c-0.1,0.1-0.3,0.3-0.4,0.4l-0.9-0.3
		l-0.1,0.1c-0.3,0.4-0.6,0.8-0.7,1.3l-0.1,0.1l0.7,0.6c-0.1,0.2-0.1,0.4-0.2,0.6l-0.9,0.2v1.8l0.9,0.2c0,0.2,0.1,0.4,0.2,0.6
		l-0.7,0.6l0.1,0.1c0.2,0.5,0.4,0.9,0.7,1.3l0.1,0.1l0.9-0.3c0.1,0.1,0.3,0.3,0.4,0.4l-0.3,0.9l0.1,0.1c0.4,0.3,0.8,0.6,1.3,0.7
		l0.1,0.1l0.6-0.7c0.2,0.1,0.4,0.1,0.6,0.2l0.2,0.9h1.8l0.2-0.9c0.2,0,0.4-0.1,0.6-0.2l0.6,0.7l0.1-0.1c0.5-0.2,0.9-0.4,1.3-0.7
		l0.1-0.1l-0.3-0.9c0.1-0.1,0.3-0.3,0.4-0.4l0.9,0.3l0.1-0.1c0.3-0.4,0.6-0.8,0.7-1.3l0.1-0.1l-0.7-0.6c0.1-0.2,0.1-0.4,0.2-0.6
		L27.5,18.8z M25.3,18c0,2.1-1.7,3.9-3.9,3.9s-3.9-1.7-3.9-3.9c0-2.1,1.7-3.9,3.9-3.9S25.3,15.8,25.3,18z"/>
</g>
</svg>
