<svg xmlns="http://www.w3.org/2000/svg" width="42" height="42" viewBox="0 0 42 42">
    <g fill="none" fill-rule="evenodd">
        <g>
            <g>
                <g>
                    <path d="M0 0H42V42H0z" transform="translate(-29 -437) translate(0 426) translate(29 11)"/>
                    <g transform="translate(-29 -437) translate(0 426) translate(29 11) translate(1 1)">
                        <circle cx="20" cy="20" r="20" stroke="#BFBFBF" stroke-width="2"/>
                        <g stroke="#202020">
                            <g stroke-width="1.76">
                                <path stroke-linejoin="bevel" d="M12.672 2.069V0H0v21.68h12.672v-1.978m-2.522-3.554H0" transform="translate(11 9)"/>
                                <path d="M5.28 18.8L7.04 18.8" transform="translate(11 9)"/>
                            </g>
                            <g stroke-linejoin="bevel" stroke-width="2">
                                <path d="M13.894 6.947c0 3.836-3.11 6.947-6.947 6.947S0 10.784 0 6.947C0 3.11 3.11 0 6.947 0c3.836 0 6.947 3.11 6.947 6.947zM0 6.947L13.894 6.947" transform="translate(11 9) translate(8 4)"/>
                                <path d="M6.446.348L5.23 3.078c-1.189 2.668-1.16 5.72.08 8.364l.932 1.987M7.532.348l1.216 2.73c1.19 2.668 1.16 5.72-.08 8.364l-.932 1.987" transform="translate(11 9) translate(8 4)"/>
                            </g>
                        </g>
                    </g>
                </g>
            </g>
        </g>
    </g>
</svg>
