<?xml version="1.0" encoding="utf-8"?>
<!-- Generator: Adobe Illustrator 25.0.0, SVG Export Plug-In . SVG Version: 6.00 Build 0)  -->
<svg version="1.1" id="Layer_1" xmlns="http://www.w3.org/2000/svg" xmlns:xlink="http://www.w3.org/1999/xlink" x="0px" y="0px"
	 viewBox="0 0 30 30" style="enable-background:new 0 0 30 30;" xml:space="preserve">
<style type="text/css">
	.st0{fill:none;stroke:#EF3123;stroke-width:2;}
	.st1{fill:none;stroke:#EF3123;stroke-width:2;stroke-miterlimit:10;}
	.st2{fill:#EF3123;}
</style>
<desc>Created with Sketch.</desc>
<polyline id="Path-43_2_" class="st0" points="28.8,20.2 24.1,15.4 16.7,15.4 16.7,19.3 20.9,19.3 20.9,23.6 11.2,23.6 4.7,18.8 
	2.4,21.9 9.8,28.1 20.9,28.1 "/>
<line class="st1" x1="9.2" y1="3.3" x2="9.2" y2="17.3"/>
<polyline class="st1" points="4.5,9.9 8.5,12.7 13.5,6.7 "/>
<path class="st2" d="M15.3,10.2L15.3,10.2L15.3,10.2c0-2.3-2-5.8-6.1-8.9l0,0l0,0C8.7,1.4,3.3,5.2,3.3,10c0,0,0,0,0,0.1
	c0,0,0,0,0,0.1c0.1,4.9,6.1,8.7,6.1,8.7l0.6-0.4C14,15.5,15.3,12.5,15.3,10.2L15.3,10.2L15.3,10.2z M9.3,16.2c-1.3-1-3.9-3.3-3.9-6
	l0,0l0,0l0,0l0,0l0,0l0,0c0-2.9,2.6-5.3,3.9-6c2.6,2,3.9,4.1,3.9,6.1C13.1,12.2,11.9,14.2,9.3,16.2z"/>
</svg>
