<?xml version="1.0" encoding="utf-8"?>
<!-- Generator: Adobe Illustrator 25.0.0, SVG Export Plug-In . SVG Version: 6.00 Build 0)  -->
<svg version="1.1" id="Layer_1" xmlns="http://www.w3.org/2000/svg" xmlns:xlink="http://www.w3.org/1999/xlink" x="0px" y="0px"
	 viewBox="0 0 30 30" style="enable-background:new 0 0 30 30;" xml:space="preserve">
<style type="text/css">
	.st0{fill:none;stroke:#202020;stroke-width:2;}
	.st1{fill:none;stroke:#000000;stroke-width:2;stroke-miterlimit:10;}
</style>
<desc>Created with Sketch.</desc>
<g id="Group-37_2_" transform="translate(5.000000, 31.000000)">
	<polyline id="Path-43_2_" class="st0" points="23.8,-10.8 19.1,-15.6 11.7,-15.6 11.7,-11.7 15.9,-11.7 15.9,-7.4 6.2,-7.4 
		-0.3,-12.2 -2.6,-9.1 4.8,-2.9 15.9,-2.9 	"/>
</g>
<line class="st1" x1="9.2" y1="3.3" x2="9.2" y2="17.3"/>
<polyline class="st1" points="4.5,9.9 8.5,12.7 13.5,6.7 "/>
<path d="M15.3,10.2L15.3,10.2L15.3,10.2c0-2.3-2-5.8-6.1-8.9l0,0l0,0C8.7,1.4,3.3,5.2,3.3,10c0,0,0,0,0,0.1c0,0,0,0,0,0.1
	c0.1,4.9,6.1,8.7,6.1,8.7l0.6-0.4C14,15.5,15.3,12.5,15.3,10.2L15.3,10.2L15.3,10.2z M9.3,16.2c-1.3-1-3.9-3.3-3.9-6l0,0l0,0l0,0
	l0,0l0,0l0,0c0-2.9,2.6-5.3,3.9-6c2.6,2,3.9,4.1,3.9,6.1C13.1,12.2,11.9,14.2,9.3,16.2z"/>
</svg>
