<?xml version="1.0" encoding="utf-8"?>
<!-- Generator: Adobe Illustrator 25.0.0, SVG Export Plug-In . SVG Version: 6.00 Build 0)  -->
<svg version="1.1" id="圖層_1" xmlns="http://www.w3.org/2000/svg" xmlns:xlink="http://www.w3.org/1999/xlink" x="0px" y="0px"
	 viewBox="0 0 30 30" style="enable-background:new 0 0 30 30;" xml:space="preserve">
<style type="text/css">
	.st0{fill:#EF3123;}
	.st1{fill:none;stroke:#EF3123;stroke-width:2;}
	.st2{display:none;}
	.st3{display:inline;opacity:0.6;}
	.st4{fill:#F29D86;}
	.st5{display:inline;opacity:0.6;fill:#5DBAC7;enable-background:new    ;}
</style>
<g>
	<path class="st0" d="M16.3,28.8c-0.2,0-0.5-0.1-0.7-0.2l-2.6-3l1.6-1.2l1.5,1.9l4.5-4.5c0.2-0.2,0.6-0.4,0.8-0.2l3.6,0.6l2.3-2.3
		V19l-1.8,1.8c-0.4,0.4-0.9,0.4-1.4,0l-2.8-3.4l1.5-0.9l1.9,2.2l2.9-2.7c0.2-0.2,0.7-0.4,1.1-0.2s0.6,0.5,0.6,0.9v3.9
		c0,0.2-0.1,0.5-0.2,0.7l-3.2,3.2c-0.2,0.2-0.6,0.4-0.8,0.2L21.6,24l-4.7,4.7C16.9,28.6,16.7,28.8,16.3,28.8z"/>
	<path class="st0" d="M15.5,28.3l-2.7-2.7c-0.4-0.4-0.4-0.9,0-1.4l4.8-4.8l-0.7-3.6c0-0.4,0-0.6,0.2-0.8l3.2-3.2
		c0.2-0.2,0.5-0.2,0.7-0.2h3.7c0.4,0,0.7,0.2,0.9,0.6c0.1,0.4,0.1,0.8-0.2,1.1l-2.7,2.9l2.1,2.5l-1.4,1.1l-2.7-2.9
		c-0.4-0.4-0.4-0.9,0-1.4l1.8-1.8h-0.9L19.3,16l0.6,3.6c0,0.4,0,0.6-0.2,0.8L15,25l2,2L15.5,28.3z"/>
	<polyline id="Path-4_2_" class="st1" points="18.4,9.5 18.4,2.1 1.4,2.1 1.4,13.7 6.6,13.7 10.9,17.8 12.3,12.2 	"/>
</g>
<g id="圖層_4" class="st2">
	<g class="st3">
		<path class="st4" d="M15,2.8c6.8,0,12.3,5.5,12.3,12.3S21.8,27.3,15,27.3S2.8,21.8,2.8,15S8.2,2.8,15,2.8 M15,2.5
			C8.1,2.5,2.5,8.1,2.5,15S8.1,27.5,15,27.5S27.5,21.9,27.5,15S21.9,2.5,15,2.5L15,2.5z"/>
	</g>
</g>
<g id="圖層_3" class="st2">
	<path class="st5" d="M27.5,2.5v25h-25v-25H27.5 M30,0H0v30h30V0L30,0z"/>
</g>
</svg>
