<?xml version="1.0" encoding="utf-8"?>
<!-- Generator: Adobe Illustrator 23.1.1, SVG Export Plug-In . SVG Version: 6.00 Build 0)  -->
<svg version="1.1" xmlns="http://www.w3.org/2000/svg" xmlns:xlink="http://www.w3.org/1999/xlink" x="0px" y="0px"
	 viewBox="0 0 30 30" style="enable-background:new 0 0 30 30;" xml:space="preserve">
<style type="text/css">
	.st0{fill:none;stroke:#EF3123;stroke-width:2;}
	.st1{fill:#FFFFFF;stroke:#EF3123;stroke-width:2;stroke-miterlimit:10;}
	.st2{fill:#EF3123;}
	.st3{display:none;}
	.st4{display:inline;}
	.st5{fill:none;stroke:#202020;stroke-width:2;}
	.st6{display:inline;fill:#FFFFFF;stroke:#202020;stroke-width:2;stroke-miterlimit:10;}
	.st7{fill:#202020;}
</style>
<g id="Layer_1_copy">
	<title>Icon / Svg / 48 / Line / Call 017@1x</title>
	<desc>Created with Sketch.</desc>
	<g>
		<g id="EBU-icon-4_1_" transform="translate(5.000000, 6.000000)">
			<polyline id="Path-4_1_" class="st0" points="0.5,7.1 0.5,-2.4 21.5,-2.4 21.5,12.4 18.7,12.4 13.8,18.5 13.8,12.4 11.4,12.4 			
				"/>
		</g>
	</g>
	<circle class="st1" cx="9" cy="20.6" r="5.7"/>
	<g>
		<path class="st2" d="M9,22.9c-0.4,0-0.7,0.2-0.7,0.7c0,0.5,0.4,0.7,0.7,0.7c0.4,0,0.7-0.2,0.7-0.7C9.7,23.1,9.3,22.9,9,22.9z"/>
		<path class="st2" d="M8.9,16.9c-1.4,0-2.4,1-2.4,2.3v0.1H8v-0.1c0-0.5,0.5-0.8,0.9-0.8c0.7,0,1,0.3,1,1c0,0.2,0,0.4-0.3,0.7
			c-0.3,0.3-0.7,0.4-1.4,0.3l-0.1,0v1.8h1.4v-0.6c1.1-0.2,1.9-1.1,1.9-2.2C11.4,17.9,10.5,16.9,8.9,16.9z"/>
	</g>
	<line class="st1" x1="9.3" y1="8.3" x2="22.7" y2="8.3"/>
	<line class="st1" x1="13.3" y1="11.7" x2="22.7" y2="11.7"/>
</g>
<g id="Layer_1_copy_2" class="st3">
	<title>Icon / Svg / 48 / Line / Call 017@1x</title>
	<desc>Created with Sketch.</desc>
	<g class="st4">
		<g id="EBU-icon-4_2_" transform="translate(5.000000, 6.000000)">
			<polyline id="Path-4_2_" class="st5" points="0.5,7.1 0.5,-2.4 21.5,-2.4 21.5,12.4 18.7,12.4 13.8,18.5 13.8,12.4 11.4,12.4 			
				"/>
		</g>
	</g>
	<circle class="st6" cx="9" cy="20.6" r="5.7"/>
	<g class="st4">
		<path class="st7" d="M9,22.9c-0.4,0-0.7,0.2-0.7,0.7c0,0.5,0.4,0.7,0.7,0.7c0.4,0,0.7-0.2,0.7-0.7C9.7,23.1,9.3,22.9,9,22.9z"/>
		<path class="st7" d="M8.9,16.9c-1.4,0-2.4,1-2.4,2.3v0.1H8v-0.1c0-0.5,0.5-0.8,0.9-0.8c0.7,0,1,0.3,1,1c0,0.2,0,0.4-0.3,0.7
			c-0.3,0.3-0.7,0.4-1.4,0.3l-0.1,0v1.8h1.4v-0.6c1.1-0.2,1.9-1.1,1.9-2.2C11.4,17.9,10.5,16.9,8.9,16.9z"/>
	</g>
	<line class="st6" x1="9.3" y1="8.3" x2="22.7" y2="8.3"/>
	<line class="st6" x1="13.3" y1="11.7" x2="22.7" y2="11.7"/>
</g>
</svg>
