<?xml version="1.0" encoding="utf-8"?>
<!-- Generator: Adobe Illustrator 23.1.1, SVG Export Plug-In . SVG Version: 6.00 Build 0)  -->
<svg version="1.1" xmlns="http://www.w3.org/2000/svg" xmlns:xlink="http://www.w3.org/1999/xlink" x="0px" y="0px"
	 viewBox="0 0 30 30" style="enable-background:new 0 0 30 30;" xml:space="preserve">
<style type="text/css">
	.st0{fill:none;stroke:#EF3123;stroke-width:2;}
	.st1{fill:#FFFFFF;stroke:#EF3123;stroke-width:2;}
	.st2{display:none;}
	.st3{display:inline;}
	.st4{fill:none;stroke:#202020;stroke-width:2;}
	.st5{display:inline;fill:#FFFFFF;stroke:#202020;stroke-width:2;}
	.st6{display:inline;fill:none;stroke:#202020;stroke-width:2;}
</style>
<g id="Layer_1_copy_2">
	<title>Icon / Svg / 48 / Line / Call 017@1x</title>
	<desc>Created with Sketch.</desc>
	<g>
		<polyline id="Path-25_2_" class="st0" points="24.9,26.6 3.5,26.6 3.5,5.4 6.5,5.4 		"/>
		<polygon id="Path-28_2_" class="st0" points="7.5,7.9 7.5,3.5 21.7,3.5 21.7,7.9 		"/>
		<line id="Path-26_2_" class="st0" x1="6.5" y1="12.5" x2="13.3" y2="12.5"/>
		<line id="Path-26-Copy_2_" class="st0" x1="6.5" y1="17" x2="13.3" y2="17"/>
		<line id="Path-26-Copy-2_2_" class="st0" x1="6.5" y1="21.5" x2="13.5" y2="21.5"/>
	</g>
	<circle id="Oval_2_" class="st1" cx="21.6" cy="17.7" r="5"/>
	<polyline id="Path-24_2_" class="st0" points="19.8,16.6 21.9,18.8 27.1,10.1 	"/>
</g>
<g id="Layer_1_copy_3" class="st2">
	<title>Icon / Svg / 48 / Line / Call 017@1x</title>
	<desc>Created with Sketch.</desc>
	<g class="st3">
		<polyline id="Path-25_1_" class="st4" points="24.9,26.6 3.5,26.6 3.5,5.4 6.5,5.4 		"/>
		<polygon id="Path-28_1_" class="st4" points="7.5,7.9 7.5,3.5 21.7,3.5 21.7,7.9 		"/>
		<line id="Path-26_1_" class="st4" x1="6.5" y1="12.5" x2="13.3" y2="12.5"/>
		<line id="Path-26-Copy_1_" class="st4" x1="6.5" y1="17" x2="13.3" y2="17"/>
		<line id="Path-26-Copy-2_1_" class="st4" x1="6.5" y1="21.5" x2="13.5" y2="21.5"/>
	</g>
	<circle id="Oval_1_" class="st5" cx="21.6" cy="17.7" r="5"/>
	<polyline id="Path-24_1_" class="st6" points="19.8,16.6 21.9,18.8 27.1,10.1 	"/>
</g>
</svg>
