<?xml version="1.0" encoding="utf-8"?>
<!-- Generator: Adobe Illustrator 25.0.0, SVG Export Plug-In . SVG Version: 6.00 Build 0)  -->
<svg version="1.1" id="圖層_1" xmlns="http://www.w3.org/2000/svg" xmlns:xlink="http://www.w3.org/1999/xlink" x="0px" y="0px"
	 viewBox="0 0 30 30" style="enable-background:new 0 0 30 30;" xml:space="preserve">
<style type="text/css">
	.st0{fill:#EF3123;}
	.st1{fill:none;stroke:#EF3123;stroke-width:1.5;stroke-miterlimit:10;}
	.st2{fill:none;stroke:#EF3123;stroke-width:2;stroke-miterlimit:10;}
	.st3{display:none;}
	.st4{display:inline;opacity:0.6;}
	.st5{fill:#F29D86;}
	.st6{display:inline;opacity:0.6;fill:#5DBAC7;enable-background:new    ;}
</style>
<g>
	<rect x="10" y="18.7" class="st0" width="3.1" height="5.8"/>
	<rect x="14.8" y="16.5" class="st0" width="3.1" height="8"/>
	<rect x="19.9" y="13.7" class="st0" width="3.1" height="10.5"/>
	<path id="Stroke-3" class="st1" d="M7,14.4h4.7c0.8,0,1.5-0.5,1.5-1.5c0-0.7-0.5-1.5-1.5-1.5H8.4C7.6,11.4,7,10.9,7,10
		c0-0.7,0.5-1.5,1.5-1.5h4.7"/>
	<line id="Stroke-5_2_" class="st1" x1="10" y1="6.6" x2="10" y2="16.6"/>
	<rect x="3.4" y="2.2" class="st2" width="23" height="25.4"/>
</g>
<g id="圖層_4" class="st3">
	<g class="st4">
		<path class="st5" d="M15,2.8c6.8,0,12.3,5.5,12.3,12.3S21.8,27.3,15,27.3S2.8,21.8,2.8,15S8.2,2.8,15,2.8 M15,2.5
			C8.1,2.5,2.5,8.1,2.5,15S8.1,27.5,15,27.5S27.5,21.9,27.5,15S21.9,2.5,15,2.5L15,2.5z"/>
	</g>
</g>
<g id="圖層_3" class="st3">
	<path class="st6" d="M27.5,2.5v25h-25v-25H27.5 M30,0H0v30h30V0L30,0z"/>
</g>
</svg>
