<?xml version="1.0" encoding="utf-8"?>
<!-- Generator: Adobe Illustrator 25.0.0, SVG Export Plug-In . SVG Version: 6.00 Build 0)  -->
<svg version="1.1" id="圖層_1" xmlns="http://www.w3.org/2000/svg" xmlns:xlink="http://www.w3.org/1999/xlink" x="0px" y="0px"
	 viewBox="0 0 30 30" style="enable-background:new 0 0 30 30;" xml:space="preserve">
<style type="text/css">
	.st0{fill:none;stroke:#000000;stroke-width:1.5;}
	.st1{fill:none;stroke:#000000;stroke-width:2;}
	.st2{display:none;}
	.st3{display:inline;opacity:0.6;}
	.st4{fill:#F29D86;}
	.st5{display:inline;opacity:0.6;fill:#5DBAC7;enable-background:new    ;}
</style>
<g>
	<rect x="10" y="18.6" width="3.1" height="5.8"/>
	<rect x="14.8" y="16.4" width="3.1" height="8.1"/>
	<rect x="19.9" y="13.8" width="3.1" height="10.5"/>
	<g id="Group-7" transform="translate(19.000000, 13.000000)">
		<path id="Stroke-3" class="st0" d="M-12.1,1.3h4.8c0.9,0,1.4-0.6,1.4-1.4c0-0.8-0.6-1.4-1.4-1.4h-3.3c-0.9,0-1.4-0.6-1.4-1.4
			c0-0.8,0.6-1.4,1.4-1.4h4.8"/>
		<line id="Stroke-5_2_" class="st0" x1="-9" y1="-6.4" x2="-9" y2="3.5"/>
	</g>
	<rect x="3.4" y="2.3" class="st1" width="23" height="25.4"/>
</g>
<g id="圖層_4" class="st2">
	<g class="st3">
		<path class="st4" d="M15,2.8c6.8,0,12.3,5.5,12.3,12.3S21.8,27.3,15,27.3S2.8,21.8,2.8,15S8.2,2.8,15,2.8 M15,2.5
			C8.1,2.5,2.5,8.1,2.5,15S8.1,27.5,15,27.5S27.5,21.9,27.5,15S21.9,2.5,15,2.5L15,2.5z"/>
	</g>
</g>
<g id="圖層_3" class="st2">
	<path class="st5" d="M27.5,2.5v25h-25v-25H27.5 M30,0H0v30h30V0L30,0z"/>
</g>
</svg>
