<?xml version="1.0" encoding="utf-8"?>
<!-- Generator: Adobe Illustrator 23.1.1, SVG Export Plug-In . SVG Version: 6.00 Build 0)  -->
<svg version="1.1" xmlns="http://www.w3.org/2000/svg" xmlns:xlink="http://www.w3.org/1999/xlink" x="0px" y="0px"
	 viewBox="0 0 30 30" style="enable-background:new 0 0 30 30;" xml:space="preserve">
<style type="text/css">
	.st0{fill:#EF3123;}
	.st1{display:none;}
	.st2{display:inline;}
	.st3{fill:#202020;}
</style>
<g id="Layer_1_copy">
	<title>Icon / Svg / 48 / Line / Call 017@1x</title>
	<desc>Created with Sketch.</desc>
	<g>
		<path class="st0" d="M23.2,4.3V2.5h-1.9v1.8H8.7V2.5H6.8v1.8H2.6v0c0,0,0,0,0,0l-0.1,0v23.2h25V4.3H23.2z M8.7,8V6.2h12.5V8h1.9
			V6.2h2.4v3.9H4.4V6.2h2.4V8H8.7z M4.4,25.6V12h21.1v13.6H4.4z"/>
		<rect x="17.2" y="14.3" class="st0" width="1.9" height="1.9"/>
		<rect x="21" y="14.3" class="st0" width="1.9" height="1.9"/>
		<rect x="17.2" y="17.8" class="st0" width="1.9" height="1.9"/>
		<rect x="17.2" y="21.4" class="st0" width="1.9" height="1.9"/>
		<rect x="21" y="17.8" class="st0" width="1.9" height="1.9"/>
		<path class="st0" d="M6.8,22.2h7.9v-8H6.8V22.2z M8.8,16.3h3.9v4H8.8V16.3z"/>
	</g>
</g>
<g id="Layer_1_copy_2" class="st1">
	<title>Icon / Svg / 48 / Line / Call 017@1x</title>
	<desc>Created with Sketch.</desc>
	<g class="st2">
		<path class="st3" d="M23.2,4.3V2.5h-1.9v1.8H8.7V2.5H6.8v1.8H2.6v0c0,0,0,0,0,0l-0.1,0v23.2h25V4.3H23.2z M8.7,8V6.2h12.5V8h1.9
			V6.2h2.4v3.9H4.4V6.2h2.4V8H8.7z M4.4,25.6V12h21.1v13.6H4.4z"/>
		<rect x="17.2" y="14.3" class="st3" width="1.9" height="1.9"/>
		<rect x="21" y="14.3" class="st3" width="1.9" height="1.9"/>
		<rect x="17.2" y="17.8" class="st3" width="1.9" height="1.9"/>
		<rect x="17.2" y="21.4" class="st3" width="1.9" height="1.9"/>
		<rect x="21" y="17.8" class="st3" width="1.9" height="1.9"/>
		<path class="st3" d="M6.8,22.2h7.9v-8H6.8V22.2z M8.8,16.3h3.9v4H8.8V16.3z"/>
	</g>
</g>
</svg>
