<?xml version="1.0" encoding="utf-8"?>
<!-- Generator: Adobe Illustrator 25.0.0, SVG Export Plug-In . SVG Version: 6.00 Build 0)  -->
<svg version="1.1" id="圖層_1" xmlns="http://www.w3.org/2000/svg" xmlns:xlink="http://www.w3.org/1999/xlink" x="0px" y="0px"
	 viewBox="0 0 30 30" style="enable-background:new 0 0 30 30;" xml:space="preserve">
<style type="text/css">
	.st0{display:none;}
	.st1{display:inline;opacity:0.6;}
	.st2{fill:#F29D86;}
	.st3{display:inline;opacity:0.6;fill:#5DBAC7;enable-background:new    ;}
	.st4{fill:none;stroke:#EF3123;stroke-width:2;}
</style>
<g id="圖層_4" class="st0">
	<g class="st1">
		<path class="st2" d="M15,2.8c6.8,0,12.3,5.5,12.3,12.3S21.8,27.3,15,27.3S2.8,21.8,2.8,15S8.2,2.8,15,2.8 M15,2.5
			C8.1,2.5,2.5,8.1,2.5,15S8.1,27.5,15,27.5S27.5,21.9,27.5,15S21.9,2.5,15,2.5L15,2.5z"/>
	</g>
</g>
<g id="圖層_3" class="st0">
	<path class="st3" d="M27.5,2.5v25h-25v-25H27.5 M30,0H0v30h30V0L30,0z"/>
</g>
<g>
	<path class="st4" d="M12.9,26.2V15.4V3c0,0,2.5-3.1,6.9,0.8c2.9,2.7,7.5,0.7,7.5,0.7v9.9c0,0-5.2,2.7-8.4-0.5c-2-2.1-5.4-1.7-6,1.5
		"/>
	<polyline class="st4" points="29.6,26.9 23.3,26.9 18.1,22.4 12.9,26.4 7.3,20.6 1.1,27.2 	"/>
</g>
</svg>
