<?xml version="1.0" encoding="utf-8"?>
<!-- Generator: Adobe Illustrator 25.0.0, SVG Export Plug-In . SVG Version: 6.00 Build 0)  -->
<svg version="1.1" id="圖層_1" xmlns="http://www.w3.org/2000/svg" xmlns:xlink="http://www.w3.org/1999/xlink" x="0px" y="0px"
	 viewBox="0 0 30 30" style="enable-background:new 0 0 30 30;" xml:space="preserve">
<style type="text/css">
	.st0{display:none;}
	.st1{display:inline;opacity:0.6;}
	.st2{fill:#F29D86;}
	.st3{display:inline;opacity:0.6;fill:#5DBAC7;enable-background:new    ;}
	.st4{fill:none;stroke:#EF3123;stroke-width:2;}
</style>
<g id="圖層_4" class="st0">
	<g class="st1">
		<path class="st2" d="M15,2.8c6.8,0,12.3,5.5,12.3,12.3S21.8,27.3,15,27.3S2.8,21.8,2.8,15S8.2,2.8,15,2.8 M15,2.5
			C8.1,2.5,2.5,8.1,2.5,15S8.1,27.5,15,27.5S27.5,21.9,27.5,15S21.9,2.5,15,2.5L15,2.5z"/>
	</g>
</g>
<g id="圖層_3" class="st0">
	<path class="st3" d="M27.5,2.5v25h-25v-25H27.5 M30,0H0v30h30V0L30,0z"/>
</g>
<rect x="2.5" y="20.2" class="st4" width="8.3" height="7.5"/>
<rect x="19.2" y="10.4" class="st4" width="8.3" height="17.3"/>
<rect x="10.9" y="14.9" class="st4" width="8.3" height="12.7"/>
<path id="Stroke-3" class="st4" d="M1.5,11.9h6.6c1.1,0,2-0.9,2-2s-0.9-2-2-2H3.5c-1.1,0-2-0.9-2-2s0.9-1.7,2.1-1.7h6.6"/>
<line id="Stroke-5_2_" class="st4" x1="5.7" y1="1.3" x2="5.7" y2="14.6"/>
</svg>
