<?xml version="1.0" encoding="utf-8"?>
<!-- Generator: Adobe Illustrator 25.0.0, SVG Export Plug-In . SVG Version: 6.00 Build 0)  -->
<svg version="1.1" id="圖層_1" xmlns="http://www.w3.org/2000/svg" xmlns:xlink="http://www.w3.org/1999/xlink" x="0px" y="0px"
	 viewBox="0 0 30 30" style="enable-background:new 0 0 30 30;" xml:space="preserve">
<style type="text/css">
	.st0{fill:none;stroke:#202020;stroke-width:2;}
	.st1{fill:#202020;}
	.st2{display:none;}
	.st3{display:inline;opacity:0.6;}
	.st4{fill:#F29D86;}
	.st5{display:inline;opacity:0.6;fill:#5DBAC7;enable-background:new    ;}
</style>
<g>
	<g>
		<g id="Group-37_2_" transform="translate(5.000000, 31.000000)">
			<polyline id="Path-43_2_" class="st0" points="23.8,-10.8 19.1,-15.6 11.7,-15.6 11.7,-11.7 15.9,-11.7 15.9,-7.4 6.2,-7.4 
				-0.3,-12.2 -2.6,-9.1 4.8,-2.9 15.9,-2.9 			"/>
		</g>
	</g>
	<path class="st1" d="M23,0.7H6.9L3.3,6.5v9.1h10.1v-2H5.3V7.9h12.3h0.6h6.6v5h2V6.5 M17.6,5.9L17.6,5.9h-2l0,0h-2.1l0,0h-2l0,0H6.1
		L8,2.7h2.6l0,0h8.9l0,0h2.4l2,3.2H17.6z"/>
</g>
<g id="圖層_4" class="st2">
	<g class="st3">
		<path class="st4" d="M15,2.8c6.8,0,12.3,5.5,12.3,12.3S21.8,27.3,15,27.3S2.8,21.8,2.8,15S8.2,2.8,15,2.8 M15,2.5
			C8.1,2.5,2.5,8.1,2.5,15S8.1,27.5,15,27.5S27.5,21.9,27.5,15S21.9,2.5,15,2.5L15,2.5z"/>
	</g>
</g>
<g id="圖層_3" class="st2">
	<path class="st5" d="M27.5,2.5v25h-25v-25H27.5 M30,0H0v30h30V0L30,0z"/>
</g>
</svg>
